<?xml version="1.0" encoding="utf-8"?>
<!-- Generator: Adobe Illustrator 26.5.0, SVG Export Plug-In . SVG Version: 6.00 Build 0)  -->
<svg version="1.1" id="Layer_1" xmlns="http://www.w3.org/2000/svg" xmlns:xlink="http://www.w3.org/1999/xlink" x="0px" y="0px"
	 viewBox="0 0 361 438" style="enable-background:new 0 0 361 438;" xml:space="preserve">
<style type="text/css">
	.st0{fill:#FFFFFF;}
</style>
<g>
	<path class="st0" d="M197,18.1C115.6,18.1,49.3,84.4,49.3,166v77.7c0,21.8-11.6,42.3-30.4,53.4c-1.5,0.9-2.7,2.3-3.3,3.9
		c-0.4,0.9-0.6,1.9-0.5,2.9c0,2.8,1.5,5.4,3.9,6.8c0,0,0,0,0,0c10.9,6.3,24.6,7.4,36.3,3.1c3.1-1.1,6.2-1.7,9.3-1.7
		c15,0,27.1,12.2,27.1,27.1c0,1-0.1,1.9-0.2,3.2c-0.2,1.5-0.3,3-0.3,4.5c0,23.7,19.3,43,43,43c6,0,11.7-1.2,17-3.5
		c3.4-1.4,7-2.2,10.7-2.2c15,0,27.1,12.2,27.1,27.1c0,0.6,0,1.3-0.1,1.9c-0.2,2.6,0.9,5.1,3,6.8c1.4,1.1,3.2,1.7,4.9,1.7
		c0.8,0,1.6-0.1,2.3-0.3c87.2-26.6,145.7-105.8,145.7-197V166C344.9,84.4,278.6,18.1,197,18.1L197,18.1z M329.1,224.6
		c0,80.8-49.8,151.4-124.9,178.6c-3.9-19.7-21.3-34.7-42.2-34.7c-5.9,0-11.6,1.2-16.9,3.5c-3.3,1.4-7,2.2-10.8,2.2
		c-15,0-27.1-12.2-27.1-27.1c0-0.9,0.1-1.8,0.3-3.2c0.2-1.5,0.2-3,0.2-4.5c0-23.7-19.3-43-43-43c-4.9,0-9.9,0.9-14.7,2.7
		c-3,1.1-6.2,1.5-9.5,1.7c15.6-14.6,24.8-35.3,24.8-57V166c0-72.8,59.1-132.1,131.8-132.1c72.8,0,132.1,59.2,132.1,132.1
		L329.1,224.6L329.1,224.6z"/>
	<path class="st0" d="M256.5,98.4c-21.8,0-39.5,17.7-39.5,39.5c0,21.8,17.7,39.5,39.5,39.5s39.5-17.7,39.5-39.5
		S278.3,98.4,256.5,98.4z M256.5,161.5c-13,0-23.6-10.6-23.6-23.6s10.6-23.6,23.6-23.6c13,0,23.6,10.6,23.6,23.6
		S269.5,161.5,256.5,161.5z"/>
	<path class="st0" d="M137.5,98.4c-21.8,0-39.5,17.7-39.5,39.5c0,21.8,17.7,39.5,39.5,39.5c21.8,0,39.5-17.7,39.5-39.5
		S159.2,98.4,137.5,98.4z M137.5,161.5c-13,0-23.6-10.6-23.6-23.6s10.6-23.6,23.6-23.6s23.6,10.6,23.6,23.6S150.5,161.5,137.5,161.5
		z"/>
</g>
</svg>
