<?xml version="1.0" encoding="UTF-8"?><svg id="Layer_1" xmlns="http://www.w3.org/2000/svg" viewBox="0 0 329.87 403.89"><defs><style>.cls-1{fill:#fff;}</style></defs><path class="cls-1" d="M147.94,0c81.43,0,147.69,66.37,147.69,147.93v77.71c0,21.79,11.64,42.26,30.37,53.44,1.54,.92,2.69,2.31,3.32,3.92,.36,.93,.55,1.92,.55,2.95-.02,2.8-1.52,5.39-3.94,6.81,0,0-.01,0-.02,0-10.91,6.32-24.63,7.45-36.31,3.15-3.08-1.12-6.2-1.69-9.28-1.69-14.96,0-27.12,12.18-27.12,27.13,0,.97,.05,1.92,.18,3.15,.17,1.5,.33,2.99,.33,4.53,0,23.7-19.29,42.99-43,42.99-5.98,0-11.72-1.17-17.03-3.46-3.38-1.45-6.97-2.18-10.68-2.18-14.96,0-27.12,12.18-27.12,27.13,0,.64,.02,1.27,.06,1.9,.18,2.61-.93,5.13-2.98,6.75-1.42,1.12-3.16,1.72-4.93,1.72-.78,0-1.56-.11-2.32-.35C58.55,376.93,0,297.77,0,206.57v-58.64C.01,66.36,66.38,0,147.95,0h0ZM15.87,206.56c0,80.81,49.8,151.37,124.94,178.62,3.89-19.73,21.33-34.66,42.19-34.66,5.86,0,11.55,1.16,16.95,3.46,3.34,1.45,6.96,2.18,10.76,2.18,14.96,0,27.12-12.17,27.12-27.12,0-.92-.12-1.81-.27-3.18-.15-1.48-.23-2.97-.23-4.5,0-23.71,19.29-43,43-43,4.93,0,9.88,.89,14.73,2.66,3.02,1.11,6.2,1.55,9.48,1.66-15.57-14.62-24.78-35.3-24.78-57.02v-77.71c0-72.82-59.13-132.07-131.81-132.07S15.88,75.11,15.88,147.94v58.62h0Z"/><path class="cls-1" d="M88.42,80.38c21.76,0,39.46,17.7,39.46,39.46s-17.7,39.46-39.46,39.46-39.46-17.7-39.46-39.46,17.7-39.46,39.46-39.46Zm0,63.04c13,0,23.59-10.58,23.59-23.58s-10.59-23.58-23.59-23.58-23.59,10.58-23.59,23.58,10.58,23.58,23.59,23.58Z"/><path class="cls-1" d="M207.46,80.38c21.76,0,39.46,17.7,39.46,39.46s-17.7,39.46-39.46,39.46-39.46-17.7-39.46-39.46,17.7-39.46,39.46-39.46Zm0,63.04c13,0,23.58-10.58,23.58-23.58s-10.58-23.58-23.58-23.58-23.58,10.58-23.58,23.58,10.58,23.58,23.58,23.58Z"/></svg>