<?xml version="1.0" encoding="utf-8"?>
<!-- Generator: Adobe Illustrator 26.5.0, SVG Export Plug-In . SVG Version: 6.00 Build 0)  -->
<svg version="1.1" id="Layer_1" xmlns="http://www.w3.org/2000/svg" xmlns:xlink="http://www.w3.org/1999/xlink" x="0px" y="0px"
	 viewBox="0 0 700 700" style="enable-background:new 0 0 700 700;" xml:space="preserve">
<style type="text/css">
	.st0{fill:#FFFFFF;}
</style>
<g>
	<path class="st0" d="M129.8,378.4c-6.7,7.3-14.6,11.8-23.5,15.1c-7.8,2.8-17.4,1.7-19-10.6c-2.2-19,7.8-32.5,18.5-46.5
		c6.2-8.4,15.7-13.4,21.8-21.8c9.5-13.4,20.7-25.8,23.5-42.6c2.8-15.7,9-29.1,16.8-42.6c5-8.4,12.3-13.4,19.6-19.6
		c14-11.2,30.8-16.8,47-23c5-2.2,9.5-6.7,15.7-6.2c7.8,0.6,14.6-2.8,22.4-1.7c6.2,0.6,12.9-1.1,19.6-1.1c7.8,0.6,14.6,2.2,21.8,3.9
		c21.8,5,42,14.6,59.4,28.6c17.9,14.6,34.2,30.8,42.6,52.6c5,14,9.5,28.6,9,43.7c0,5.6,1.7,9.5,6.2,12.9c6.7,5,12.3,11.2,14,20.2
		c0.6,5,3.4,9,5,14c3.9,11.2,3.4,18.5,0.6,26.9c-0.6,1.1-1.1,2.2-2.8,2.8c-4.5,1.7-8.4,3.9-12.9,5c-5,1.7-9-0.6-11.8-4.5
		c-9.5-12.3-12.9-9.5-24.1-1.7c-9.5,6.7-13.4,17.4-16.8,28.6c-1.7,5.6-2.8,11.8-3.9,17.4c-1.1,7.3,0.6,11.2,7.3,14
		c1.1,0.6,2.2,0.6,2.2,1.7c-3.9,2.8-3.9,3.4,0.6,5.6c3.9,1.7,7.8,1.7,12.3,1.7c12.9,0.6,24.1-5.6,35.8-9.5c5-1.7,10.6-3.4,15.7-4.5
		c6.7-1.7,13.4-3.9,20.2-5.6c15.1-3.9,29.7-9.5,45.4-12.9c22.4-5,42-16.8,62.7-25.8c7.8-3.4,14.6-9,22.4-12.9
		c1.1-0.6,2.8-1.7,4.5-1.7s3.4-2.8,5-0.6c1.7,2.2-0.6,4.5-1.7,5.6c-3.4,3.4-6.2,6.7-10.1,9c-9,5-16.2,12.3-25.8,16.8
		c-5.6,2.8-11.2,5-16.2,9.5c-9,8.4-20.2,12.9-30.2,19.6c-5,3.4-11.2,5-16.2,8.4c-11.2,6.7-24.6,9-35.8,15.7
		c-15.7,8.4-31.9,15.1-48.2,21.8c-12.3,5.6-24.6,11.2-37,16.8c-10.1,5-20.7,9-31.9,10.6c-1.1,0-2.2,0.6-2.8,1.1
		c-6.7,3.4-14,5.6-21.3,5.6c-16.8,0.6-33,5.6-49.8,2.8c-21.8-3.4-42.6-11.2-61.6-23c-13.4-8.4-26.9-16.8-39.2-26.3
		c-10.1-7.8-17.9-17.9-25.2-29.1c-5.6-9-7.8-19-11.8-28.6c-1.1-3.4-3.4-6.7-5.6-10.1C135.9,397.5,133.1,388.5,129.8,378.4
		L129.8,378.4z M587.3,396.3c-1.1-0.6-2.2,0-2.8,0c-11.8,5.6-23.5,11.8-35.8,16.8c-12.3,5.6-25.2,9.5-38.1,12.9
		c-10.6,2.8-21.3,7.3-32.5,9.5c-9.5,1.7-18.5,5.6-28.6,6.7c-1.7,0-4.5,1.7-5.6,1.1c-3.9-1.1-3.4,4.5-8.4,4.5c-5-0.6-10.6,2.8-16.2,5
		c-10.6,3.9-20.7,5.6-31.9,1.7c-5.6-2.2-15.1-13.4-15.1-18.5c0-10.1,3.4-19.6,5.6-29.1c2.2-9,9-15.7,13.4-24.1
		c1.1-2.2,3.4-3.9,5.6-4.5c2.8-0.6,4.5-2.8,6.7-3.9c5.6-3.9,11.2-3.4,16.2,0.6c2.8,2.8,5,6.2,9,7.8c2.8,1.7,15.1-1.1,16.2-3.9
		c1.7-4.5,2.8-8.4,1.7-13.4c-1.1-4.5-2.2-9-3.4-13.4c-3.9-12.9-7.8-24.6-20.2-32.5c-2.8-1.7-3.4-5.6-3.4-8.4c-0.6-7.3,0-14-1.7-21.3
		c-1.1-6.2-3.4-12.3-5-17.9c-2.8-10.1-7.8-19.6-13.4-28c-7.3-11.2-17.4-20.2-27.4-28c-18.5-15.1-39.8-25.2-63.3-30.2
		c-7.3-1.7-14.6-3.4-22.4-2.2c-5,0.6-10.1,1.1-14.6,0.6c-8.4-1.1-16.2,2.8-24.6,1.7c-1.7,0-3.4,0.6-5,1.7
		c-10.1,5.6-21.3,9-31.9,13.4c-10.1,3.9-17.9,10.1-25.2,17.9c-1.1,1.1-2.2,2.8-2.8,2.8c-3.9-0.6-4.5,2.2-6.7,4.5
		c-3.9,4.5-6.2,9.5-9,14c-6.7,10.1-10.6,21.3-12.3,33c-0.6,5.6-2.8,10.6-5.6,15.7c-2.8,5-5.6,10.1-9.5,14.6
		c-1.7,2.2-3.9,4.5-5.6,7.3c-2.8,5-5.6,10.1-10.6,13.4c-10.6,6.7-16.2,17.4-23.5,26.9c-5.6,7.3-7.3,16.2-7.8,25.2
		c-0.6,5,2.8,11.2,6.7,11.2c6.2,0.6,12.3-1.1,16.8-4.5c5-3.4,10.1-7.8,15.1-11.8c2.2-1.7,3.9-3.4,6.2,0c1.7,2.2,4.5,4.5,0.6,6.7
		c0,1.7-0.6,2.8,0,3.9c1.7,4.5,1.7,9.5,3.9,13.4c3.4,6.7,9,11.8,10.6,19c1.7,6.7,3.9,13.4,6.7,19.6c9,20.2,24.1,34.2,42.6,44.8
		c12.3,7.3,24.6,15.7,38.1,21.8c6.7,2.8,12.9,6.7,20.2,9.5c17.4,5.6,35.3,7.8,53.2,6.2c5-0.6,10.6-0.6,15.7-1.1
		c4.5,0,9-0.6,13.4-1.7c11.2-2.8,21.3-7.3,32.5-10.1c9-2.2,16.8-7.3,25.8-10.6c6.7-2.8,13.4-6.2,20.2-8.4c9-2.8,16.2-7.8,25.2-11.2
		c8.4-2.8,16.8-6.2,24.6-10.6c7.3-4.5,15.1-7.8,23-10.6c14.6-5.6,28-13.4,41.4-21.8c8.4-5,16.2-10.1,24.1-15.7
		C567.1,408.1,577.8,403.6,587.3,396.3L587.3,396.3z"/>
	<path class="st0" d="M197.5,300c-0.6-10.6,3.9-19.6,12.9-26.9c1.7-1.7,3.4-2.2,6.2-1.7c4.5,1.1,9-1.7,14,0
		c5.6,2.2,11.2,4.5,16.2,7.8c6.2,4.5,9,16.8,4.5,23.5c-7.8,12.3-19,19.6-34.2,19.6c-12.9,0-21.3-10.1-19.6-20.2
		C197.5,301.7,197.5,301.1,197.5,300L197.5,300z"/>
	<path class="st0" d="M253,344.3c11.8,0,23.5,1.1,34.7,2.2c2.8,0.6,6.2,1.1,9,2.2c2.8,1.1,2.8,3.4,1.7,6.2
		c-3.4,8.4-7.8,16.2-16.2,21.3c-5,2.8-9.5,5.6-15.1,6.2c-7.8,0.6-15.7,0.6-23.5-3.4c-8.4-4.5-17.9-19.6-16.8-29.1
		c0-2.2,1.1-3.4,3.4-3.9C237.9,344.3,245.7,344.3,253,344.3L253,344.3z"/>
	<path class="st0" d="M317.9,325.8c-4.5,0.6-7.8-1.7-11.2-4.5c-7.8-9-11.8-18.5-7.8-30.2c1.1-3.9,2.8-7.3,7.3-9
		c0.6,0,1.1-0.6,1.7-1.1c16.8-11.8,24.1-9.5,39.2,7.8c5,6.2,5,16.2,0,22.4C339.2,319.6,329.1,324.1,317.9,325.8L317.9,325.8z"/>
	<path class="st0" d="M340.3,361.1c5-6.7,11.8-10.6,16.2-17.9c1.1-1.7,3.4-3.4,5-5c1.7-1.1,2.8-0.6,2.8,1.1c0,4.5,1.1,10.1-4.5,12.9
		c-0.6,0-0.6,0.6-1.1,1.1c2.2,1.1,5.6,2.2,5,4.5c-0.6,3.4-3.4,5.6-6.2,7.3c-2.8,1.7-6.7,2.2-9.5,0c-2.8-2.2,0-4.5,1.1-6.7
		c2.2-3.4,5-6.2,7.3-9.5c-6.2,3.9-11.8,8.4-15.1,15.1c-2.2,4.5-5,2.2-7.3,1.1c-2.8-1.1-0.6-3.4,0-5c1.7-6.7,7.3-10.1,10.6-16.8
		c-6.2,3.9-9,9.5-13.4,14c-0.6,0.6-1.1,1.7-2.2,2.2c-0.6,0.6-1.7,1.7-2.8,1.1c-1.7-1.1,0-2.2,0.6-2.8c6.7-7.3,14-15.1,20.7-22.4
		c1.1-1.1,2.8-1.1,2.8,0c0.6,2.8,1.7,1.1,2.8,1.1c1.1,0,2.2-0.6,2.8,1.1c0,1.7-0.6,2.2-1.7,2.8C347.1,344.8,344.3,353.8,340.3,361.1
		L340.3,361.1z"/>
	<path class="st0" d="M205.4,377.3c-10.1-10.6-19-21.8-24.6-36.4c3.9,1.7,5.6,5,8.4,7.3c0.6,0.6,1.7,3.9,2.8,0
		c0.6-2.2,1.7,0.6,2.2,1.1c1.7,1.7,1.1,6.7,6.2,3.4c1.1-0.6,2.8,2.2,2.8,3.9c0,1.7,2.8,4.5-1.7,4.5c-1.7,0-2.2,1.1-1.7,3.4
		C201.5,369.5,205.4,372.3,205.4,377.3L205.4,377.3z"/>
	<path class="st0" d="M193.1,368.9c-3.9-0.6-3.9-3.9-7.3-4.5c2.2,3.9,3.9,7.3,6.2,10.1c1.1,1.1,3.4,2.2,1.1,3.9
		c-2.2,1.7-3.4-1.1-3.9-2.2c-2.8-5.6-6.2-10.6-10.6-15.1c-3.4-3.9-4.5-8.4-7.8-12.3c-1.1-1.1-1.1-3.4,0.6-5c2.2-1.7,2.8,1.7,3.4,1.7
		c6.2,0.6,6.7,6.2,9,10.1C186.9,359.4,189.7,363.9,193.1,368.9L193.1,368.9z"/>
	<path class="st0" d="M186.3,377.9c-3.4-1.7-3.9-5-6.7-6.7c-0.6,1.1-0.6,1.7,0,2.8c1.1,1.1,2.8,2.8,1.1,3.9
		c-1.1,1.1-2.2-1.1-3.4-2.2c-1.1-1.7-2.2-3.4-3.4-5c-0.6-1.1-1.1-2.8-0.6-3.4c5-3.9,0-5-1.7-7.3c-0.6-1.1-2.2-2.8-1.1-3.9
		c1.7-1.7,2.8,0,3.9,1.1C178.5,363.9,184.7,369.5,186.3,377.9L186.3,377.9z"/>
	<path class="st0" d="M340.3,337.5c-0.6,6.2-5.6,10.1-9,14.6c-0.6,1.1-2.2,1.7-3.4,0.6c-1.1-0.6-0.6-2.2,0-2.8
		c1.7-1.7,1.7-2.8-1.1-3.4c0,0,0-0.6-0.6-1.1c0-1.1,0-2.8,1.7-2.8c3.4-0.6,4.5-6.7,8.4-5C338.7,338.7,338.7,337,340.3,337.5
		L340.3,337.5z"/>
</g>
</svg>
