<?xml version="1.0" encoding="UTF-8"?><svg id="Layer_1" xmlns="http://www.w3.org/2000/svg" viewBox="0 0 93.88 114.94"><defs><style>.cls-1{fill:#fff;}</style></defs><path class="cls-1" d="M51.77,0C28.6,0,9.74,18.89,9.74,42.1v22.12c0,6.2-3.31,12.03-8.64,15.21-.44,.26-.76,.66-.94,1.12-.1,.26-.16,.55-.16,.84,0,.8,.43,1.54,1.12,1.94,0,0,0,0,0,0,3.1,1.8,7.01,2.12,10.33,.9,.88-.32,1.76-.48,2.64-.48,4.26,0,7.72,3.47,7.72,7.72,0,.28-.01,.55-.05,.9-.05,.43-.09,.85-.09,1.29,0,6.75,5.49,12.24,12.24,12.24,1.7,0,3.34-.33,4.85-.98,.96-.41,1.98-.62,3.04-.62,4.26,0,7.72,3.47,7.72,7.72,0,.18,0,.36-.02,.54-.05,.74,.27,1.46,.85,1.92,.4,.32,.9,.49,1.4,.49,.22,0,.44-.03,.66-.1,24.8-7.57,41.47-30.1,41.47-56.06v-16.69C93.88,18.89,74.99,0,51.77,0h0Zm37.59,58.78c0,23-14.17,43.08-35.56,50.83-1.11-5.62-6.07-9.87-12.01-9.87-1.67,0-3.29,.33-4.82,.99-.95,.41-1.98,.62-3.06,.62-4.26,0-7.72-3.46-7.72-7.72,0-.26,.03-.52,.08-.9,.04-.42,.07-.85,.07-1.28,0-6.75-5.49-12.24-12.24-12.24-1.4,0-2.81,.25-4.19,.76-.86,.32-1.77,.44-2.7,.47,4.43-4.16,7.05-10.05,7.05-16.23v-22.12C14.26,21.38,31.09,4.52,51.77,4.52s37.59,16.86,37.59,37.59v16.68h0Z"/><path class="cls-1" d="M68.71,22.88c-6.19,0-11.23,5.04-11.23,11.23s5.04,11.23,11.23,11.23,11.23-5.04,11.23-11.23-5.04-11.23-11.23-11.23Zm0,17.94c-3.7,0-6.71-3.01-6.71-6.71s3.01-6.71,6.71-6.71,6.71,3.01,6.71,6.71-3.01,6.71-6.71,6.71Z"/><path class="cls-1" d="M34.84,22.88c-6.19,0-11.23,5.04-11.23,11.23s5.04,11.23,11.23,11.23,11.23-5.04,11.23-11.23-5.04-11.23-11.23-11.23Zm0,17.94c-3.7,0-6.71-3.01-6.71-6.71s3.01-6.71,6.71-6.71,6.71,3.01,6.71,6.71-3.01,6.71-6.71,6.71Z"/></svg>